<?xml version="1.0" encoding="UTF-8"?>
<svg xmlns="http://www.w3.org/2000/svg" xmlns:xlink="http://www.w3.org/1999/xlink" viewBox="0 0 864 256">
  <defs>
    <style>
      .cls-1 {
        fill: #c2c1c1;
      }

      .cls-2 {
        fill: #fafafa;
      }

      .cls-3 {
        fill: #cbcaca;
      }

      .cls-4 {
        fill: #bebdbd;
      }

      .cls-5 {
        fill: #bdbdbd;
      }

      .cls-6 {
        fill: #e0dfdf;
      }

      .cls-7 {
        fill: #edecec;
      }

      .cls-8 {
        fill: #f1f0f0;
      }

      .cls-9 {
        fill: #cdcccc;
      }

      .cls-10 {
        fill: #c5c4c4;
      }

      .cls-11 {
        fill: #e5e4e3;
      }

      .cls-12 {
        fill: #c3c2c2;
      }

      .cls-13 {
        fill: #f8f8f7;
      }

      .cls-14 {
        fill: #eeedec;
      }

      .cls-15 {
        fill: #fefefe;
      }

      .cls-16 {
        fill: #c1c0c0;
      }

      .cls-17 {
        fill: #cfcece;
      }

      .cls-18 {
        fill: #e7e6e5;
      }

      .cls-19 {
        fill: #d7d6d6;
      }

      .cls-20 {
        fill: #c5c5c5;
      }

      .cls-21 {
        fill: #e8e7e7;
      }

      .cls-22 {
        fill: #d1d1d0;
      }

      .cls-23 {
        fill: #dedddd;
      }

      .cls-24 {
        fill: #d0cfcf;
      }

      .cls-25 {
        fill: #d8d7d7;
      }

      .cls-26, .cls-27 {
        fill: #fff;
      }

      .cls-28 {
        fill: #fbfbfb;
      }

      .cls-29 {
        fill: #e8e7e6;
      }

      .cls-30 {
        fill: #bcbbbc;
      }

      .cls-31 {
        fill: #eae9e9;
      }

      .cls-32 {
        fill: #ecebeb;
      }

      .cls-33 {
        fill: #d9d8d8;
      }

      .cls-34 {
        fill: #efeeee;
      }

      .cls-35 {
        fill: #f5f4f4;
      }

      .cls-36 {
        fill: #bcbcbc;
      }

      .cls-37 {
        fill: #f7f6f6;
      }

      .cls-38 {
        fill: #cac9c9;
      }

      .cls-39 {
        fill: #d6d5d5;
      }

      .cls-40 {
        fill: #ebeaea;
      }

      .cls-41 {
        fill: #f9f9f8;
      }

      .cls-42 {
        clip-path: url(#clippath-1);
      }

      .cls-43 {
        fill: #e6e5e4;
      }

      .cls-44 {
        fill: #e3e2e2;
      }

      .cls-27 {
        clip-path: url(#clippath);
      }

      .cls-45 {
        fill: #c7c6c6;
      }

      .cls-46 {
        isolation: isolate;
      }

      .cls-47 {
        fill: #c4c3c3;
      }

      .cls-48 {
        fill: #bbbaba;
      }

      .cls-49 {
        fill: #e2e1e0;
      }

      .cls-50 {
        fill: #ecebea;
      }

      .cls-51 {
        fill: #f7f7f6;
      }

      .cls-52 {
        fill: #c2c2c2;
      }

      .cls-53 {
        fill: #f2f1f1;
      }

      .cls-54 {
        fill: #d4d3d3;
      }

      .cls-55 {
        fill: #cecdcd;
      }

      .cls-56 {
        fill: #bfbebe;
      }

      .cls-57 {
        fill: #f4f3f3;
      }

      .cls-58 {
        fill: #e0dfde;
      }

      .cls-59 {
        fill: #c9c8c8;
      }

      .cls-60 {
        fill: #cececd;
      }

      .cls-61 {
        fill: #e2e1e1;
      }

      .cls-62 {
        fill: #bebebe;
      }

      .cls-63 {
        fill: #d5d4d4;
      }

      .cls-64 {
        fill: #d3d2d2;
      }

      .cls-65 {
        fill: #f0efee;
      }

      .cls-66 {
        mix-blend-mode: multiply;
      }

      .cls-67 {
        fill: #c0bfbf;
      }

      .cls-68 {
        fill: #cccbcb;
      }

      .cls-69 {
        fill: #f6f5f5;
      }

      .cls-70 {
        fill: #d2d1d1;
      }

      .cls-71 {
        fill: #dbdada;
      }

      .cls-72 {
        fill: #c6c5c5;
      }

      .cls-73 {
        fill: #dad9d8;
      }

      .cls-74 {
        fill: #f1f0ef;
      }

      .cls-75 {
        fill: #e6e5e5;
      }

      .cls-76 {
        fill: #d8d7d6;
      }

      .cls-77 {
        fill: #dad9d9;
      }

      .cls-78 {
        fill: #dcdbda;
      }

      .cls-79 {
        fill: #c8c7c7;
      }

      .cls-80 {
        fill: #eae9e8;
      }

      .cls-81 {
        fill: #d5d4d3;
      }

      .cls-82 {
        fill: #f3f2f1;
      }

      .cls-83 {
        fill: #d6d6d5;
      }

      .cls-84 {
        fill: #fcfcfc;
      }

      .cls-85 {
        fill: #c8c8c7;
      }

      .cls-86 {
        fill: #bbb;
      }

      .cls-87 {
        fill: #e1e0e0;
      }

      .cls-88 {
        fill: #c1c1c1;
      }

      .cls-89 {
        fill: #efeded;
      }

      .cls-90 {
        fill: #dcdbdb;
      }

      .cls-91 {
        fill: #dddcdc;
      }

      .cls-92 {
        fill: #bfbfbf;
      }

      .cls-93 {
        fill: #e4e3e3;
      }

      .cls-94 {
        fill: #dedddc;
      }

      .cls-95 {
        fill: #cbcbca;
      }

      .cls-96 {
        fill: #e4e3e2;
      }

      .cls-97 {
        fill: #d1d0d0;
      }

      .cls-98 {
        fill: #e9e8e7;
      }

      .cls-99 {
        fill: #dfdede;
      }

      .cls-100 {
        fill: #f3f3f2;
      }
    </style>
    <clipPath id="clippath">
      <path class="cls-26" d="M320.32,61.17h0c-38.37,0-69.48,31.11-69.48,69.48h0c0,24.3,12.49,45.68,31.38,58.09,8.41-12.02,22.35-19.9,38.1-19.9,20.31,0,37.61,13.1,43.92,31.29h25.56v-69.48c0-38.37-31.11-69.48-69.48-69.48Z"/>
    </clipPath>
    <clipPath id="clippath-1">
      <path class="cls-27" d="M351.31,131.31c0,16.75-13.58,30.33-30.33,30.33s-31.13-13.2-31.63-30.05c-.52-17.51,13.58-31.93,30.97-31.93s30.99,13.9,30.99,30.99v.66Z"/>
    </clipPath>
  </defs>
  <g class="cls-46">
    <g id="Layer_1">
      <g>
        <path class="cls-26" d="M81.31,204.21c-19.72,0-36.23-4.16-49.53-12.48-13.3-8.32-22.66-19.9-28.09-34.74l41.53-24.16c7.06,16.83,19.54,25.24,37.46,25.24,14.83,0,22.26-4.25,22.26-12.76,0-5.43-4.25-9.95-12.76-13.57-2.9-1.09-10.86-3.53-23.88-7.33-18.46-5.25-32.48-12.57-42.07-21.98-9.59-9.41-14.38-21.89-14.38-37.46,0-17.55,6.24-31.76,18.73-42.61,12.85-10.86,28.59-16.28,47.23-16.28,15.92,0,30.03,3.76,42.34,11.26,12.3,7.51,21.71,18.23,28.23,32.16l-40.71,23.88c-5.97-14.11-15.84-21.17-29.58-21.17-5.61,0-9.95,1.13-13.03,3.39-3.08,2.26-4.61,5.29-4.61,9.09,0,4.16,2.21,7.69,6.65,10.58,4.43,2.9,13.07,6.24,25.92,10.04,9.59,2.9,17.01,5.43,22.26,7.6,5.97,2.54,12.12,5.97,18.46,10.31,13.21,8.69,19.81,22.53,19.81,41.53s-6.61,33.21-19.81,43.7c-13.21,10.5-30.67,15.74-52.38,15.74Z"/>
        <path class="cls-26" d="M245.24,64.43v43.16h-28.23v39.35c0,5.79,2.04,9.46,6.11,10.99,4.07,1.54,11.44,2.04,22.12,1.49v40.71c-26.78,3.26-45.78.81-57-7.33-10.86-8.5-16.28-23.43-16.28-44.78v-40.44h-20.36v-43.16h20.36v-24.43l45.05-13.57v38h28.23Z"/>
        <path class="cls-26" d="M557.67,3.36v41.8c-15.38-1.09-23.07,4.44-23.07,16.56v2.71h23.07v43.16h-23.07v92.55h-45.33v-92.55h-31.48v92.55h-45.05v-92.55h-17.1v-43.16h17.1c0-19.72,5.79-34.69,17.37-44.92,11.58-10.22,28.59-14.7,51.03-13.43v41.8c-15.56-1.09-23.34,4.44-23.34,16.56h31.48v-2.71c0-19.72,5.79-34.69,17.37-44.92,11.58-10.22,28.59-14.7,51.03-13.44Z"/>
        <path class="cls-26" d="M607.88,45.7c-5.07,5.07-11.13,7.6-18.18,7.6s-13.21-2.53-18.46-7.6c-5.07-5.25-7.6-11.4-7.6-18.46s2.53-13.12,7.6-18.18c5.25-5.06,11.4-7.6,18.46-7.6s13.12,2.54,18.18,7.6c5.24,5.07,7.87,11.13,7.87,18.18s-2.63,13.21-7.87,18.46ZM612.22,200.13h-45.06V64.43h45.06v135.71Z"/>
        <path class="cls-26" d="M705.88,6.07v41.8c-15.56-1.09-23.34,4.44-23.34,16.56h23.34v43.16h-23.34v92.55h-45.06v-92.55h-17.1v-43.16h17.1c0-19.72,5.79-34.69,17.37-44.92,11.58-10.22,28.59-14.7,51.03-13.43Z"/>
        <path class="cls-26" d="M789.2,143.14l21.17-78.71h49.94l-46.41,133.54c-7.24,20.44-17.46,35.19-30.67,44.24-13.21,9.05-30.31,13.12-51.3,12.21v-42.34c9.59,0,16.83-1.18,21.71-3.53,4.88-2.35,8.86-6.61,11.94-12.76l-54.28-131.36h50.48l27.41,78.71Z"/>
        <g>
          <path class="cls-26" d="M320.32,61.17h0c-38.37,0-69.48,31.11-69.48,69.48h0c0,24.3,12.49,45.68,31.38,58.09,8.41-12.02,22.35-19.9,38.1-19.9,20.31,0,37.61,13.1,43.92,31.29h25.56v-69.48c0-38.37-31.11-69.48-69.48-69.48ZM351.31,131.31c0,16.75-13.58,30.33-30.33,30.33s-31.13-13.2-31.63-30.05c-.52-17.51,13.58-31.93,30.97-31.93s30.99,13.9,30.99,30.99v.66Z"/>
          <g>
            <path class="cls-26" d="M320.32,61.17h0c-38.37,0-69.48,31.11-69.48,69.48h0c0,24.3,12.49,45.68,31.38,58.09,8.41-12.02,22.35-19.9,38.1-19.9,20.31,0,37.61,13.1,43.92,31.29h25.56v-69.48c0-38.37-31.11-69.48-69.48-69.48Z"/>
            <path class="cls-26" d="M351.31,131.31c0,16.75-13.58,30.33-30.33,30.33s-31.13-13.2-31.63-30.05c-.52-17.51,13.58-31.93,30.97-31.93s30.99,13.9,30.99,30.99v.66Z"/>
            <g class="cls-42">
              <g class="cls-66">
                <path class="cls-26" d="M358.81,138.16c17.09,0,30.99,13.9,30.99,30.99v.66c0,16.75-13.58,30.33-30.33,30.33h0c-16.86,0-31.13-13.2-31.63-30.05-.52-17.51,13.58-31.93,30.97-31.93"/>
                <path class="cls-15" d="M358.43,137.78c17.09,0,30.99,13.9,30.99,30.99v.66c0,16.75-13.58,30.33-30.33,30.33h0c-16.86,0-31.13-13.2-31.63-30.05-.52-17.51,13.58-31.93,30.97-31.93"/>
                <path class="cls-84" d="M358.05,137.4c17.09,0,30.99,13.9,30.99,30.99v.66c0,16.75-13.58,30.33-30.33,30.33h0c-16.86,0-31.13-13.19-31.63-30.05-.52-17.51,13.58-31.93,30.97-31.93"/>
                <path class="cls-28" d="M357.67,137.02c17.09,0,30.99,13.9,30.99,30.99v.66c0,16.75-13.58,30.33-30.33,30.33h0c-16.86,0-31.13-13.19-31.63-30.05-.52-17.51,13.57-31.92,30.97-31.92"/>
                <path class="cls-2" d="M357.29,136.64c17.09,0,30.98,13.9,30.98,30.98v.66c0,16.75-13.58,30.33-30.33,30.33h0c-16.86,0-31.13-13.19-31.63-30.05-.52-17.51,13.57-31.92,30.97-31.92"/>
                <path class="cls-41" d="M356.91,136.26c17.08,0,30.98,13.9,30.98,30.98v.66c0,16.75-13.58,30.32-30.32,30.32h0c-16.86,0-31.13-13.19-31.63-30.05-.52-17.51,13.57-31.92,30.97-31.92"/>
                <path class="cls-13" d="M356.52,135.88c17.08,0,30.98,13.9,30.98,30.98v.66c0,16.75-13.58,30.32-30.32,30.32h0c-16.86,0-31.13-13.19-31.63-30.05-.52-17.51,13.57-31.92,30.97-31.92"/>
                <path class="cls-51" d="M356.14,135.5c17.08,0,30.98,13.9,30.98,30.98v.66c0,16.75-13.58,30.32-30.32,30.32h0c-16.86,0-31.13-13.19-31.63-30.04-.52-17.51,13.57-31.92,30.97-31.92"/>
                <path class="cls-37" d="M355.76,135.12c17.08,0,30.98,13.9,30.98,30.98v.66c0,16.75-13.58,30.32-30.32,30.32h0c-16.86,0-31.13-13.19-31.63-30.04-.52-17.51,13.57-31.92,30.97-31.92"/>
                <path class="cls-69" d="M355.38,134.74c17.08,0,30.98,13.9,30.98,30.98v.66c0,16.75-13.58,30.32-30.32,30.32h0c-16.86,0-31.13-13.19-31.63-30.04-.52-17.51,13.57-31.92,30.97-31.92"/>
                <path class="cls-35" d="M355,134.35c17.08,0,30.98,13.9,30.98,30.98v.66c0,16.75-13.57,30.32-30.32,30.32h0c-16.86,0-31.12-13.19-31.62-30.04-.52-17.51,13.57-31.92,30.97-31.92"/>
                <path class="cls-57" d="M354.62,133.97c17.08,0,30.98,13.9,30.98,30.98v.66c0,16.74-13.57,30.32-30.32,30.32h0c-16.86,0-31.12-13.19-31.62-30.04-.52-17.51,13.57-31.92,30.96-31.92"/>
                <path class="cls-100" d="M354.24,133.59c17.08,0,30.98,13.9,30.98,30.98v.66c0,16.74-13.57,30.32-30.32,30.32h0c-16.86,0-31.12-13.19-31.62-30.04-.52-17.51,13.57-31.92,30.96-31.92"/>
                <path class="cls-82" d="M353.86,133.21c17.08,0,30.98,13.9,30.98,30.98v.66c0,16.74-13.57,30.32-30.32,30.32h0c-16.86,0-31.12-13.19-31.62-30.04-.52-17.51,13.57-31.91,30.96-31.91"/>
                <path class="cls-53" d="M353.48,132.83c17.08,0,30.98,13.9,30.98,30.98v.66c0,16.74-13.57,30.32-30.32,30.32h0c-16.86,0-31.12-13.19-31.62-30.04-.52-17.51,13.57-31.91,30.96-31.91"/>
                <path class="cls-8" d="M353.09,132.45c17.08,0,30.97,13.9,30.97,30.97v.66c0,16.74-13.57,30.32-30.32,30.32h0c-16.85,0-31.12-13.19-31.62-30.04-.52-17.51,13.57-31.91,30.96-31.91"/>
                <path class="cls-74" d="M352.71,132.07c17.08,0,30.97,13.89,30.97,30.97v.66c0,16.74-13.57,30.31-30.31,30.31h0c-16.85,0-31.12-13.19-31.62-30.04-.52-17.51,13.57-31.91,30.96-31.91"/>
                <path class="cls-65" d="M352.33,131.69c17.08,0,30.97,13.89,30.97,30.97v.66c0,16.74-13.57,30.31-30.31,30.31h0c-16.85,0-31.12-13.19-31.62-30.04-.52-17.5,13.57-31.91,30.96-31.91"/>
                <path class="cls-34" d="M351.95,131.31c17.08,0,30.97,13.89,30.97,30.97v.66c0,16.74-13.57,30.31-30.31,30.31h0c-16.85,0-31.12-13.19-31.62-30.03-.52-17.5,13.57-31.91,30.96-31.91"/>
                <path class="cls-89" d="M351.57,130.93c17.08,0,30.97,13.89,30.97,30.97v.66c0,16.74-13.57,30.31-30.31,30.31h0c-16.85,0-31.12-13.19-31.62-30.03-.52-17.5,13.57-31.91,30.96-31.91"/>
                <path class="cls-14" d="M351.19,130.55c17.08,0,30.97,13.89,30.97,30.97v.66c0,16.74-13.57,30.31-30.31,30.31h0c-16.85,0-31.12-13.19-31.62-30.03-.52-17.5,13.57-31.91,30.96-31.91"/>
                <path class="cls-7" d="M350.81,130.17c17.08,0,30.97,13.89,30.97,30.97v.66c0,16.74-13.57,30.31-30.31,30.31h0c-16.85,0-31.11-13.19-31.61-30.03-.52-17.5,13.57-31.91,30.96-31.91"/>
                <path class="cls-32" d="M350.43,129.79c17.08,0,30.97,13.89,30.97,30.97v.66c0,16.74-13.57,30.31-30.31,30.31h0c-16.85,0-31.11-13.19-31.61-30.03-.52-17.5,13.57-31.91,30.95-31.91"/>
                <path class="cls-50" d="M350.05,129.41c17.08,0,30.97,13.89,30.97,30.97v.66c0,16.74-13.57,30.31-30.31,30.31h0c-16.85,0-31.11-13.19-31.61-30.03-.52-17.5,13.57-31.91,30.95-31.91"/>
                <path class="cls-40" d="M349.66,129.03c17.08,0,30.97,13.89,30.97,30.97v.66c0,16.74-13.57,30.31-30.31,30.31h0c-16.85,0-31.11-13.19-31.61-30.03-.52-17.5,13.57-31.9,30.95-31.9"/>
                <path class="cls-31" d="M349.28,128.65c17.07,0,30.97,13.89,30.97,30.97v.66c0,16.74-13.57,30.31-30.31,30.31h0c-16.85,0-31.11-13.19-31.61-30.03-.52-17.5,13.57-31.9,30.95-31.9"/>
                <path class="cls-80" d="M348.9,128.27c17.07,0,30.96,13.89,30.96,30.96v.66c0,16.74-13.57,30.31-30.31,30.31h0c-16.85,0-31.11-13.19-31.61-30.03-.52-17.5,13.57-31.9,30.95-31.9"/>
                <path class="cls-98" d="M348.52,127.89c17.07,0,30.96,13.89,30.96,30.96v.66c0,16.74-13.57,30.3-30.3,30.3h0c-16.85,0-31.11-13.19-31.61-30.03s13.56-31.9,30.95-31.9"/>
                <path class="cls-21" d="M348.14,127.51c17.07,0,30.96,13.89,30.96,30.96v.66c0,16.74-13.57,30.3-30.3,30.3h0c-16.85,0-31.11-13.18-31.61-30.03-.52-17.5,13.56-31.9,30.95-31.9"/>
                <path class="cls-29" d="M347.76,127.13c17.07,0,30.96,13.89,30.96,30.96v.66c0,16.74-13.57,30.3-30.3,30.3h0c-16.85,0-31.11-13.18-31.61-30.02-.52-17.5,13.56-31.9,30.95-31.9"/>
                <path class="cls-18" d="M347.38,126.75c17.07,0,30.96,13.89,30.96,30.96v.66c0,16.74-13.57,30.3-30.3,30.3h0c-16.85,0-31.11-13.18-31.61-30.02s13.56-31.9,30.95-31.9"/>
                <path class="cls-75" d="M347,126.37c17.07,0,30.96,13.89,30.96,30.96v.66c0,16.73-13.57,30.3-30.3,30.3h0c-16.85,0-31.11-13.18-31.61-30.02-.52-17.5,13.56-31.9,30.95-31.9"/>
                <path class="cls-43" d="M346.62,125.99c17.07,0,30.96,13.89,30.96,30.96v.66c0,16.73-13.57,30.3-30.3,30.3h0c-16.85,0-31.1-13.18-31.6-30.02-.52-17.5,13.56-31.9,30.95-31.9"/>
                <path class="cls-11" d="M346.23,125.61c17.07,0,30.96,13.89,30.96,30.96v.66c0,16.73-13.57,30.3-30.3,30.3h0c-16.85,0-31.1-13.18-31.6-30.02-.52-17.5,13.56-31.9,30.94-31.9"/>
                <path class="cls-93" d="M345.85,125.23c17.07,0,30.96,13.89,30.96,30.96v.66c0,16.73-13.57,30.3-30.3,30.3h0c-16.85,0-31.1-13.18-31.6-30.02s13.56-31.89,30.94-31.89"/>
                <path class="cls-96" d="M345.47,124.85c17.07,0,30.96,13.89,30.96,30.96v.66c0,16.73-13.56,30.3-30.3,30.3h0c-16.84,0-31.1-13.18-31.6-30.02-.52-17.5,13.56-31.89,30.94-31.89"/>
                <path class="cls-44" d="M345.09,124.47c17.07,0,30.96,13.89,30.96,30.96v.66c0,16.73-13.56,30.3-30.3,30.3h0c-16.84,0-31.1-13.18-31.6-30.02s13.56-31.89,30.94-31.89"/>
                <path class="cls-61" d="M344.71,124.09c17.07,0,30.95,13.89,30.95,30.95v.66c0,16.73-13.56,30.3-30.3,30.3h0c-16.84,0-31.1-13.18-31.6-30.02-.52-17.49,13.56-31.89,30.94-31.89"/>
                <path class="cls-49" d="M344.33,123.71c17.07,0,30.95,13.89,30.95,30.95v.66c0,16.73-13.56,30.29-30.29,30.29h0c-16.84,0-31.1-13.18-31.6-30.02-.52-17.49,13.56-31.89,30.94-31.89"/>
                <path class="cls-87" d="M343.95,123.33c17.07,0,30.95,13.89,30.95,30.95v.66c0,16.73-13.56,30.29-30.29,30.29h0c-16.84,0-31.1-13.18-31.6-30.02s13.56-31.89,30.94-31.89"/>
                <path class="cls-6" d="M343.57,122.95c17.07,0,30.95,13.88,30.95,30.95v.66c0,16.73-13.56,30.29-30.29,30.29h0c-16.84,0-31.1-13.18-31.6-30.01-.52-17.49,13.56-31.89,30.94-31.89"/>
                <path class="cls-58" d="M343.19,122.57c17.07,0,30.95,13.88,30.95,30.95v.66c0,16.73-13.56,30.29-30.29,30.29h0c-16.84,0-31.1-13.18-31.6-30.01-.52-17.49,13.56-31.89,30.94-31.89"/>
                <path class="cls-99" d="M342.8,122.19c17.07,0,30.95,13.88,30.95,30.95v.66c0,16.73-13.56,30.29-30.29,30.29h0c-16.84,0-31.09-13.18-31.59-30.01-.52-17.49,13.56-31.89,30.94-31.89"/>
                <path class="cls-23" d="M342.42,121.81c17.07,0,30.95,13.88,30.95,30.95v.66c0,16.73-13.56,30.29-30.29,30.29h0c-16.84,0-31.09-13.18-31.59-30.01-.52-17.49,13.56-31.89,30.94-31.89"/>
                <path class="cls-94" d="M342.04,121.43c17.06,0,30.95,13.88,30.95,30.95v.66c0,16.73-13.56,30.29-30.29,30.29h0c-16.84,0-31.09-13.18-31.59-30.01-.52-17.49,13.56-31.89,30.93-31.89"/>
                <path class="cls-91" d="M341.66,121.05c17.06,0,30.95,13.88,30.95,30.95v.66c0,16.73-13.56,30.29-30.29,30.29h0c-16.84,0-31.09-13.18-31.59-30.01-.52-17.49,13.56-31.88,30.93-31.88"/>
                <path class="cls-90" d="M341.28,120.67c17.06,0,30.95,13.88,30.95,30.95v.66c0,16.73-13.56,30.29-30.29,30.29h0c-16.84,0-31.09-13.18-31.59-30.01-.52-17.49,13.56-31.88,30.93-31.88"/>
                <path class="cls-78" d="M340.9,120.29c17.06,0,30.95,13.88,30.95,30.95v.66c0,16.73-13.56,30.29-30.29,30.29h0c-16.84,0-31.09-13.18-31.59-30.01-.52-17.49,13.56-31.88,30.93-31.88"/>
                <path class="cls-71" d="M340.52,119.91c17.06,0,30.94,13.88,30.94,30.94v.66c0,16.73-13.56,30.29-30.29,30.29h0c-16.84,0-31.09-13.18-31.59-30.01-.52-17.49,13.56-31.88,30.93-31.88"/>
                <path class="cls-77" d="M340.14,119.53c17.06,0,30.94,13.88,30.94,30.94v.66c0,16.73-13.56,30.29-30.29,30.29h0c-16.84,0-31.09-13.18-31.59-30.01-.52-17.49,13.56-31.88,30.93-31.88"/>
                <path class="cls-73" d="M339.76,119.15c17.06,0,30.94,13.88,30.94,30.94v.66c0,16.73-13.56,30.28-30.28,30.28h0c-16.84,0-31.09-13.18-31.59-30.01-.52-17.49,13.56-31.88,30.93-31.88"/>
                <path class="cls-33" d="M339.37,118.77c17.06,0,30.94,13.88,30.94,30.94v.66c0,16.72-13.56,30.28-30.28,30.28h0c-16.84,0-31.09-13.18-31.59-30-.52-17.49,13.56-31.88,30.93-31.88"/>
                <path class="cls-25" d="M338.99,118.39c17.06,0,30.94,13.88,30.94,30.94v.66c0,16.72-13.56,30.28-30.28,30.28h0c-16.84,0-31.09-13.18-31.59-30-.52-17.49,13.55-31.88,30.93-31.88"/>
                <path class="cls-76" d="M338.61,118.01c17.06,0,30.94,13.88,30.94,30.94v.66c0,16.72-13.56,30.28-30.28,30.28h0c-16.84,0-31.08-13.17-31.58-30-.52-17.49,13.55-31.88,30.93-31.88"/>
                <path class="cls-19" d="M338.23,117.63c17.06,0,30.94,13.88,30.94,30.94v.66c0,16.72-13.56,30.28-30.28,30.28h0c-16.84,0-31.08-13.17-31.58-30-.52-17.49,13.55-31.88,30.93-31.88"/>
                <path class="cls-83" d="M337.85,117.25c17.06,0,30.94,13.88,30.94,30.94v.66c0,16.72-13.56,30.28-30.28,30.28h0c-16.83,0-31.08-13.17-31.58-30-.52-17.49,13.55-31.87,30.92-31.87"/>
                <path class="cls-39" d="M337.47,116.87c17.06,0,30.94,13.88,30.94,30.94v.66c0,16.72-13.56,30.28-30.28,30.28h0c-16.83,0-31.08-13.17-31.58-30-.52-17.48,13.55-31.87,30.92-31.87"/>
                <path class="cls-63" d="M337.09,116.49c17.06,0,30.94,13.88,30.94,30.94v.66c0,16.72-13.56,30.28-30.28,30.28h0c-16.83,0-31.08-13.17-31.58-30-.52-17.48,13.55-31.87,30.92-31.87"/>
                <path class="cls-81" d="M336.71,116.11c17.06,0,30.94,13.88,30.94,30.94v.66c0,16.72-13.56,30.28-30.28,30.28h0c-16.83,0-31.08-13.17-31.58-30-.52-17.48,13.55-31.87,30.92-31.87"/>
                <path class="cls-54" d="M336.33,115.73c17.06,0,30.93,13.88,30.93,30.93v.66c0,16.72-13.56,30.28-30.28,30.28h0c-16.83,0-31.08-13.17-31.58-30-.52-17.48,13.55-31.87,30.92-31.87"/>
                <path class="cls-64" d="M335.94,115.35c17.06,0,30.93,13.88,30.93,30.93v.66c0,16.72-13.55,30.28-30.28,30.28h0c-16.83,0-31.08-13.17-31.58-30-.52-17.48,13.55-31.87,30.92-31.87"/>
                <path class="cls-64" d="M335.56,114.97c17.06,0,30.93,13.88,30.93,30.93v.66c0,16.72-13.55,30.27-30.27,30.27h0c-16.83,0-31.08-13.17-31.58-30-.52-17.48,13.55-31.87,30.92-31.87"/>
                <path class="cls-70" d="M335.18,114.59c17.06,0,30.93,13.88,30.93,30.93v.66c0,16.72-13.55,30.27-30.27,30.27h0c-16.83,0-31.08-13.17-31.58-30-.52-17.48,13.55-31.87,30.92-31.87"/>
                <path class="cls-22" d="M334.8,114.2c17.06,0,30.93,13.88,30.93,30.93v.66c0,16.72-13.55,30.27-30.27,30.27h0c-16.83,0-31.08-13.17-31.58-29.99-.52-17.48,13.55-31.87,30.92-31.87"/>
                <path class="cls-97" d="M334.42,113.82c17.05,0,30.93,13.88,30.93,30.93v.66c0,16.72-13.55,30.27-30.27,30.27h0c-16.83,0-31.07-13.17-31.57-29.99-.52-17.48,13.55-31.87,30.92-31.87"/>
                <path class="cls-24" d="M334.04,113.44c17.05,0,30.93,13.87,30.93,30.93v.66c0,16.72-13.55,30.27-30.27,30.27h0c-16.83,0-31.07-13.17-31.57-29.99-.52-17.48,13.55-31.87,30.92-31.87"/>
                <path class="cls-24" d="M333.66,113.06c17.05,0,30.93,13.87,30.93,30.93v.66c0,16.72-13.55,30.27-30.27,30.27h0c-16.83,0-31.07-13.17-31.57-29.99-.52-17.48,13.55-31.86,30.91-31.86"/>
                <path class="cls-17" d="M333.28,112.68c17.05,0,30.93,13.87,30.93,30.93v.66c0,16.72-13.55,30.27-30.27,30.27h0c-16.83,0-31.07-13.17-31.57-29.99-.52-17.48,13.55-31.86,30.91-31.86"/>
                <path class="cls-60" d="M332.9,112.3c17.05,0,30.93,13.87,30.93,30.93v.66c0,16.72-13.55,30.27-30.27,30.27h0c-16.83,0-31.07-13.17-31.57-29.99-.52-17.48,13.55-31.86,30.91-31.86"/>
                <path class="cls-55" d="M332.51,111.92c17.05,0,30.93,13.87,30.93,30.93v.66c0,16.72-13.55,30.27-30.27,30.27h0c-16.83,0-31.07-13.17-31.57-29.99-.52-17.48,13.55-31.86,30.91-31.86"/>
                <path class="cls-9" d="M332.13,111.54c17.05,0,30.92,13.87,30.92,30.92v.66c0,16.72-13.55,30.27-30.27,30.27h0c-16.83,0-31.07-13.17-31.57-29.99-.52-17.48,13.55-31.86,30.91-31.86"/>
                <path class="cls-9" d="M331.75,111.16c17.05,0,30.92,13.87,30.92,30.92v.66c0,16.72-13.55,30.27-30.27,30.27h0c-16.83,0-31.07-13.17-31.57-29.99-.52-17.48,13.55-31.86,30.91-31.86"/>
                <path class="cls-68" d="M331.37,110.78c17.05,0,30.92,13.87,30.92,30.92v.66c0,16.71-13.55,30.26-30.26,30.26h0c-16.83,0-31.07-13.17-31.57-29.99-.52-17.48,13.55-31.86,30.91-31.86"/>
                <path class="cls-95" d="M330.99,110.4c17.05,0,30.92,13.87,30.92,30.92v.66c0,16.71-13.55,30.26-30.26,30.26h0c-16.83,0-31.07-13.17-31.57-29.99-.52-17.48,13.55-31.86,30.91-31.86"/>
                <path class="cls-3" d="M330.61,110.02c17.05,0,30.92,13.87,30.92,30.92v.66c0,16.71-13.55,30.26-30.26,30.26h0c-16.83,0-31.07-13.17-31.56-29.98-.52-17.48,13.55-31.86,30.91-31.86"/>
                <path class="cls-38" d="M330.23,109.64c17.05,0,30.92,13.87,30.92,30.92v.66c0,16.71-13.55,30.26-30.26,30.26h0c-16.82,0-31.06-13.17-31.56-29.98-.52-17.47,13.55-31.86,30.91-31.86"/>
                <path class="cls-38" d="M329.85,109.26c17.05,0,30.92,13.87,30.92,30.92v.66c0,16.71-13.55,30.26-30.26,30.26h0c-16.82,0-31.06-13.17-31.56-29.98-.52-17.47,13.55-31.85,30.9-31.85"/>
                <path class="cls-59" d="M329.47,108.88c17.05,0,30.92,13.87,30.92,30.92v.66c0,16.71-13.55,30.26-30.26,30.26h0c-16.82,0-31.06-13.17-31.56-29.98-.52-17.47,13.54-31.85,30.9-31.85"/>
                <path class="cls-85" d="M329.08,108.5c17.05,0,30.92,13.87,30.92,30.92v.66c0,16.71-13.55,30.26-30.26,30.26h0c-16.82,0-31.06-13.17-31.56-29.98-.52-17.47,13.54-31.85,30.9-31.85"/>
                <path class="cls-79" d="M328.7,108.12c17.05,0,30.92,13.87,30.92,30.92v.66c0,16.71-13.55,30.26-30.26,30.26h0c-16.82,0-31.06-13.16-31.56-29.98-.52-17.47,13.54-31.85,30.9-31.85"/>
                <path class="cls-45" d="M328.32,107.74c17.05,0,30.92,13.87,30.92,30.91v.66c0,16.71-13.55,30.26-30.26,30.26h0c-16.82,0-31.06-13.16-31.56-29.98-.52-17.47,13.54-31.85,30.9-31.85"/>
                <path class="cls-45" d="M327.94,107.36c17.05,0,30.91,13.87,30.91,30.91v.66c0,16.71-13.55,30.26-30.26,30.26h0c-16.82,0-31.06-13.16-31.56-29.98-.52-17.47,13.54-31.85,30.9-31.85"/>
                <path class="cls-72" d="M327.56,106.98c17.05,0,30.91,13.87,30.91,30.91v.66c0,16.71-13.55,30.26-30.26,30.26h0c-16.82,0-31.06-13.16-31.56-29.98-.52-17.47,13.54-31.85,30.9-31.85"/>
                <path class="cls-20" d="M327.18,106.6c17.05,0,30.91,13.87,30.91,30.91v.66c0,16.71-13.55,30.25-30.25,30.25h0c-16.82,0-31.06-13.16-31.56-29.98-.52-17.47,13.54-31.85,30.9-31.85"/>
                <path class="cls-10" d="M326.8,106.22c17.04,0,30.91,13.87,30.91,30.91v.66c0,16.71-13.54,30.25-30.25,30.25h0c-16.82,0-31.06-13.16-31.56-29.98-.52-17.47,13.54-31.85,30.9-31.85"/>
                <path class="cls-47" d="M326.42,105.84c17.04,0,30.91,13.87,30.91,30.91v.66c0,16.71-13.54,30.25-30.25,30.25h0c-16.82,0-31.06-13.16-31.55-29.97-.52-17.47,13.54-31.85,30.9-31.85"/>
                <path class="cls-47" d="M326.04,105.46c17.04,0,30.91,13.87,30.91,30.91v.66c0,16.71-13.54,30.25-30.25,30.25h0c-16.82,0-31.05-13.16-31.55-29.97-.52-17.47,13.54-31.85,30.9-31.85"/>
                <path class="cls-12" d="M325.65,105.08c17.04,0,30.91,13.87,30.91,30.91v.66c0,16.71-13.54,30.25-30.25,30.25h0c-16.82,0-31.05-13.16-31.55-29.97-.52-17.47,13.54-31.84,30.89-31.84"/>
                <path class="cls-52" d="M325.27,104.7c17.04,0,30.91,13.87,30.91,30.91v.66c0,16.71-13.54,30.25-30.25,30.25h0c-16.82,0-31.05-13.16-31.55-29.97-.52-17.47,13.54-31.84,30.89-31.84"/>
                <path class="cls-1" d="M324.89,104.32c17.04,0,30.91,13.86,30.91,30.91v.66c0,16.71-13.54,30.25-30.25,30.25h0c-16.82,0-31.05-13.16-31.55-29.97-.52-17.47,13.54-31.84,30.89-31.84"/>
                <path class="cls-88" d="M324.51,103.94c17.04,0,30.91,13.86,30.91,30.91v.66c0,16.71-13.54,30.25-30.25,30.25h0c-16.82,0-31.05-13.16-31.55-29.97-.52-17.47,13.54-31.84,30.89-31.84"/>
                <path class="cls-16" d="M324.13,103.56c17.04,0,30.9,13.86,30.9,30.9v.66c0,16.71-13.54,30.25-30.25,30.25h0c-16.82,0-31.05-13.16-31.55-29.97-.52-17.47,13.54-31.84,30.89-31.84"/>
                <path class="cls-67" d="M323.75,103.18c17.04,0,30.9,13.86,30.9,30.9v.66c0,16.7-13.54,30.25-30.25,30.25h0c-16.82,0-31.05-13.16-31.55-29.97-.52-17.47,13.54-31.84,30.89-31.84"/>
                <path class="cls-92" d="M323.37,102.8c17.04,0,30.9,13.86,30.9,30.9v.66c0,16.7-13.54,30.25-30.25,30.25h0c-16.82,0-31.05-13.16-31.55-29.97-.52-17.47,13.54-31.84,30.89-31.84"/>
                <path class="cls-56" d="M322.99,102.42c17.04,0,30.9,13.86,30.9,30.9v.66c0,16.7-13.54,30.24-30.24,30.24h0c-16.82,0-31.05-13.16-31.55-29.97-.52-17.46,13.54-31.84,30.89-31.84"/>
                <path class="cls-62" d="M322.61,102.04c17.04,0,30.9,13.86,30.9,30.9v.66c0,16.7-13.54,30.24-30.24,30.24h0c-16.81,0-31.05-13.16-31.55-29.97-.52-17.46,13.54-31.84,30.89-31.84"/>
                <path class="cls-4" d="M322.22,101.66c17.04,0,30.9,13.86,30.9,30.9v.66c0,16.7-13.54,30.24-30.24,30.24h0c-16.81,0-31.04-13.16-31.54-29.96-.52-17.46,13.54-31.84,30.89-31.84"/>
                <path class="cls-5" d="M321.84,101.28c17.04,0,30.9,13.86,30.9,30.9v.66c0,16.7-13.54,30.24-30.24,30.24h0c-16.81,0-31.04-13.16-31.54-29.96-.52-17.46,13.54-31.84,30.89-31.84"/>
                <path class="cls-36" d="M321.46,100.9c17.04,0,30.9,13.86,30.9,30.9v.66c0,16.7-13.54,30.24-30.24,30.24h0c-16.81,0-31.04-13.16-31.54-29.96-.52-17.46,13.54-31.83,30.88-31.83"/>
                <path class="cls-30" d="M321.08,100.52c17.04,0,30.9,13.86,30.9,30.9v.66c0,16.7-13.54,30.24-30.24,30.24h0c-16.81,0-31.04-13.16-31.54-29.96-.52-17.46,13.54-31.83,30.88-31.83"/>
                <path class="cls-86" d="M320.7,100.14c17.04,0,30.9,13.86,30.9,30.9v.66c0,16.7-13.54,30.24-30.24,30.24h0c-16.81,0-31.04-13.16-31.54-29.96-.52-17.46,13.54-31.83,30.88-31.83"/>
                <path class="cls-48" d="M320.32,99.76c17.04,0,30.9,13.86,30.9,30.9v.66c0,16.7-13.54,30.24-30.24,30.24h0c-16.81,0-31.04-13.16-31.54-29.96-.52-17.46,13.54-31.83,30.88-31.83"/>
              </g>
            </g>
          </g>
        </g>
      </g>
    </g>
  </g>
</svg>